/* XPM */
static char * meowcoin128_xpm[] = {
"128 128 2 1",
" 	c None",
".	c #D3C37E",
"                                                                                                                                ",
"                                                                                                                                ",
"                                                                                                                                ",
"                                                                                                                                ",
"                                                                                                                                ",
"                                                                                                                                ",
"                                                                                                                                ",
"                                                                                                                                ",
"                                                                                                                                ",
"                                                                                                                                ",
"                                                                                                                                ",
"                                                                                                                                ",
"                                                                                                                                ",
"                                                                                                                                ",
"                                                                                                                                ",
"                                                                                                                                ",
"                                                                                                                                ",
"                                                                                                                                ",
"                                                                                                                                ",
"                                                                                                                                ",
"                                                                                                                                ",
"                                    ........                 ...........                                                        ",
"                                    ........                 ...........                                                        ",
"                                    ........                 ...........                                                        ",
"                                    ........                 ...........                                                        ",
"                                    ....    ....        ....        ....                                                        ",
"                                    ...     ....        ....        ....                                                        ",
"                                    ...     ....        ....        ....                                                        ",
"                                    ...     ....        ....        ....                                                        ",
"                                    ...     ................        ....                                                        ",
"                                    ...     ................        ....                                                        ",
"                                    ...     ................        ....                                                        ",
"                                    ...     ................        ....                                                        ",
"                                    ...     ....    ....            ....                                                        ",
"                                    ...     ...     ....            ....                                                        ",
"                                    ...     ...     ....            ....                                                        ",
"                                    ...     ...     ....            ....                                                        ",
"                                    ...                             ....                                                        ",
"                                    ...                             ....                                                        ",
"                                    ...                             ....                                                        ",
"                                    ...                             ....                                                        ",
"                                    ...                             ....                                                        ",
"                                    ...     ....        ....        ....             .......                                    ",
"                                    ...     ....        ....        ....             .......                                    ",
"                                    ...     ....        ....        ....             .......                                    ",
"                                    ...     ....        ....        ....                                                        ",
"                                    ...     ....         ...        ....         ...         ...                                ",
"                                    ...     ....         ...        ....         ...         ...                                ",
"                                    ...     ....        ....        ....         ...         ...                                ",
"                                    ...                             .....        ...        ....                                ",
"                                    ...                             ........     ...     .......                                ",
"                                    ...                             ........     ...     .......                                ",
"                                    ...                             ........     ...     .......                                ",
"                                                                                         ....                                   ",
"                                        ....                     ...         ...         ...                                    ",
"                                        ....                     ...         ...         ...                                    ",
"                                        ....                     ...         ...         ...                                    ",
"                                                                                                                                ",
"                                            ....                                 .......                                        ",
"                                            ....                                 .......                                        ",
"                                            ....                                 .......                                        ",
"                                            ....                                 ....                                           ",
"                                            ....                                 ...                                            ",
"                                            ....                                 ...                                            ",
"                                            ....                                 ...                                            ",
"                                            ....                                 ...                                            ",
"                                            ....    ....     ...         ...     ...                                            ",
"                                            ....    ....     ...         ...     ...                                            ",
"                                            ....    ....     ...         ...     ...                                            ",
"                                            ....    ....     ...        ....     ...                                            ",
"                                            ....    ....     ...............     ...                                            ",
"                                            ....    ....     ...............     ...                                            ",
"                                            ....    ....     ...............     ...                                            ",
"                                            ....    ....    .....  .........    ....                                            ",
"                                            ....................    ................                                            ",
"                                            ....................    ................                                            ",
"                                            ....................    ................                                            ",
"                                            ....................    ................                                            ",
"                                                                                                                                ",
"                                                                                                                                ",
"                                                                                                                                ",
"                                                                                                                                ",
"                                                                                                                                ",
"                                                                                                                                ",
"                                                                                                                                ",
"                                                                                                                                ",
"                                                                                                                                ",
"                                                                                                                                ",
"                                                                                                                                ",
"                        ....        .....      .                                                                                ",
"                        ....        .....      ............        .........        .....     .....     .....                   ",
"                        ....        .....      .....              ...........       .....     .....     .....                   ",
"                        ....        .....      ....             .....     .....     .....     .....     .....                   ",
"                        .....       .....      ....             .....     .....     .....     .....     .....                   ",
"                        .......   .......      ....             .....     .....     .....     .....     .....                   ",
"                        .......   .......      ....             .....     .....     .....     .....     .....                   ",
"                        .......   .......      .....            .....     .....      ....     .....     .....                   ",
"                        .......   .......      .........        ....      ....        .....     .....   ...                     ",
"                        ........  .......      .........        ....      ....         ....      ....   ..                      ",
"                        ..  .....   .....      ....             ....      ....         ....      ....   ..                      ",
"                        ..   ....   .....      ....             ....      ....         ....      ....   ..                      ",
"                        ..   ....   .....      ....             ....      ....         ....     .....   ..                      ",
"                        ..   ....   .....      ....             ....      ....         ....   .......   ..                      ",
"                        ..   ....   .....      ....             ....      ....         ....   .......   ..                      ",
"                        ..          .....      ....             ....      ....          .... ..   ....                          ",
"                        ..          .....      ....             ....      ....           .....     .....                        ",
"                        ..          .....      ....             .....     ....           .....     .....                        ",
"                        ..          .....      ...........        ...........            .....     .....                        ",
"                        ..          .....      ............        .........             ....      .....                        ",
"                                                                                                                                ",
"                                                                                                                                ",
"                                                                                                                                ",
"                                                                                                                                ",
"                                                                                                                                ",
"                                                                                                                                ",
"                                                                                                                                ",
"                                                                                                                                ",
"                                                                                                                                ",
"                                                                                                                                ",
"                                                                                                                                ",
"                                                                                                                                ",
"                                                                                                                                ",
"                                                                                                                                ",
"                                                                                                                                ",
"                                                                                                                                ",
"                                                                                                                                ",
"                                                                                                                                ",
"                                                                                                                                "};
